# xmcd CD database file
#
# Track frame offsets:
#	150
#	23550
#	42937
#	62212
#	81450
#	101737
#	118537
#	131925
#	151162
#	175875
#	196237
#
# Disc length: 2809 seconds
#
# Revision: 0
# Processed by: cddbd v1.5.1PL0 Copyright (c) Steve Scherf et al.
# Submitted via: CDex 1.51
#
DISCID=920af70b
DTITLE=Charlie Rouse/Julius Watkins - Les Jazz Modes (Disk 2)
DYEAR=1956
DGENRE=Jazz
TTITLE0=Mood in Scarlet
TTITLE1=Linda Delia
TTITLE2=Town and Country
TTITLE3=When the Blues Come On
TTITLE4=Blues Modes
TTITLE5=You Are Too Beautiful
TTITLE6=So Far
TTITLE7=Idle Evening
TTITLE8=Garden Delights
TTITLE9=Strange Tale
TTITLE10=Two Songs
EXTD=YEAR: 1956
EXTT0=
EXTT1=
EXTT2=
EXTT3=
EXTT4=
EXTT5=
EXTT6=
EXTT7=
EXTT8=
EXTT9=
EXTT10=
PLAYORDER=
